<svg xmlns="http://www.w3.org/2000/svg" viewBox="0 0 547.5 366.95"><defs><style>.cls-1{fill:#95d7ae;}.cls-2{fill:none;}</style></defs><g id="Layer_2" data-name="Layer 2"><g id="Layer_1-2" data-name="Layer 1"><path class="cls-1" d="M547.5,0V75.8c-17.64,11.43-33,15.68-44,17.43-38.09,6-54.23-13.26-88.52-3.44-23.35,6.68-21.31,17.21-39.72,18.58-28.06,2.1-35.75-22.14-70.48-25.77-18.76-2-16.71,8.78-52.14,13.65-29.21,4-38.31.57-50.93,3.79-21.24,5.41-41.45,28.27-45.48,50.78-7.18,40.13,41.1,56.81,38.65,108.37-1.14,24.21-12.84,43-18.18,51.54C173,316.77,156,343.7,126,357,65.23,383.75,4.33,341.28,0,338.16V26.09C.33,17.87.35,9.17,0,0Z"/><line class="cls-2" y1="26.09"/><path class="cls-1" d="M370.76,330.11c15.63-14.95,11.3-24,25-37.89a65.27,65.27,0,0,1,31.07-17.43c4.05-.9,18-3.59,36.38,1.51,9.56,2.66,48.7,13.53,52.29,41.69,3,23.07-19.11,48.09-35.62,47.74-8.49-.17-10.47-7-22.73-8.33s-15.05,4.84-30.32,7.58c-16.22,2.9-29.26-1.16-44-5.74-12-3.75-25.25-7.88-25.77-14.73C356.76,339.84,362.64,337.87,370.76,330.11Z"/><path class="cls-1" d="M232.06,264.5c-5.92,2.6-3.34,11.74-7.58,27.28-8.87,32.54-33.26,40.56-29.56,54.57,3,11.42,21.79,15.4,34.87,18.19,36,7.69,70.53-4.87,70.48-12.12,0-2.76-5-3.6-6.06-9.1-1.18-6.17,4.28-9.42,3-12.88-2.38-6.59-23.57,1.41-31.83-7.58-6.89-7.5,3.41-18.28-2.27-34.11S240.25,260.9,232.06,264.5Z"/></g></g></svg>