<svg xmlns="http://www.w3.org/2000/svg" viewBox="0 0 550 1108"><defs><style>.cls-1{fill:#95d7ae;}</style></defs><g id="Layer_2" data-name="Layer 2"><g id="Layer_1-2" data-name="Layer 1"><path class="cls-1" d="M173.74,173.94c2.06,17,9.4,16.34,16.75,43.68,4.32,16.08,7.65,28.48,5.32,44.44,0,0-3.17,21.72-18.27,52.11a134.92,134.92,0,0,1-15.6,20.62,119.54,119.54,0,0,1-17.39,15.63,49.3,49.3,0,0,1,3.45,7,46.93,46.93,0,0,1,3,12,.77.77,0,0,1,0,.15h0s0-.07,0-.11,0-.33-.06-.5c0,0,0,0,0,0H151v0c2.77,49.46-14.08,95.92,2,130.45,12.9,27.75,31.18,11.5,53,49.53,14.6,25.45,11.86,42.21,22,62.88a69.11,69.11,0,0,0,19.63,24.52c20.23,15.65,48,17.33,73.84,4.3C339.71,631.53,357,615,370,590.93c30-55.58,21.88-122.94,53-146.71,12.84-9.81,24.89-5.9,49,1.9,40.65,13.17,46.34,36.84,76,47.64.67.25,1.34.48,2,.69V745.5c-2.2,18.43-19.17,45.26-42,57.55-18.56,10-38,8.77-48,8.14-21.39-1.36-28.52-7.86-68-23.38-60.14-23.65-73.76-20.41-80-18.3-10.41,3.54-9.23,7-37,31.51-35.29,31.16-53.32,46.68-72,43.71-16.65-2.64-20.24-16.74-32-14.23-19,4.07-24.87,44.15-26,51.84-2.92,19.88-6.91,47.12,10,65.06,18.39,19.49,52.59,18.52,75,8.13,29.17-13.52,26-37.24,57-50.83,4.29-1.88,36.92-15.64,59,1,23.08,17.41,17.89,55.45,17,62-5,36.39-33.23,74-70,84.36-43.21,12.17-66-22.41-104-4.06-23.51,11.34-25.29,29.6-47,31.51-21.06,1.85-29.46-14.46-55-18.3-28.84-4.34-51.42,10.32-56,13.22C7.61,1089.26,3.76,1108,0,1108V26.38C.33,18.07.35,9.28,0,0H550V76.64c-17.72,11.56-33.17,15.85-44.16,17.62-38.26,6.12-54.48-13.4-88.92-3.47-23.46,6.74-21.41,17.39-39.91,18.78-21.6,1.61-45.38-29.51-70.8-26-13.62,1.85-11.82,11.61-29.25,14.7-17.09,3-23.59-5.51-41.55-4S204.63,106,201.14,108.8C181.7,124.39,170.9,150.66,173.74,173.94Z"/><path class="cls-1" d="M372.45,333.76c15.71-15.12,11.35-24.26,25.12-38.31a65.6,65.6,0,0,1,31.22-17.63c4.07-.9,18.09-3.62,36.54,1.54,9.61,2.68,48.93,13.67,52.54,42.14,3,23.33-19.21,48.63-35.79,48.28-8.52-.19-10.51-7-22.84-8.43s-15.12,4.89-30.45,7.66c-16.3,2.94-29.39-1.17-44.16-5.8-12.07-3.79-25.37-8-25.89-14.89C358.39,343.6,364.3,341.61,372.45,333.76Z"/><path class="cls-1" d="M354,536.55c-3.06,7.75-12.73,32.23-36,40.72-1,.36-23.59,8.18-44-5.82-13.44-9.21-20.45-24.11-31-46.53-8.29-17.63-6.92-20.29-13-27.92-13.16-16.51-23.94-9.52-37-23.27-18.27-19.23-16.4-53.19-16-60.5.49-9,1.31-23.91,10-37.22a33.5,33.5,0,0,1,5.84-7A89.87,89.87,0,0,0,208.46,361,81.84,81.84,0,0,0,216,355.5c12.7-10.57,17.21-21.14,21.78-27.64C233,314.33,224.14,314.32,221,302.5c-2.77-10.39-2.52-25.86,6-34,11.84-11.3,26.84,2.94,66-2,18.55-2.34,25.2-6.61,36-2,10.53,4.49,20.28,16.15,20,29-.29,13.21-11,22.4-13,24-8.47,6.94-14,4.57-18,11-4.52,7.31.89,13.24-3,23a24.7,24.7,0,0,1-5.62,8.36A37.29,37.29,0,0,1,323.1,369h.43c.83,1.06,1.65,2.22,2.47,3.49,7,10.87,2.2,11.94,12,45.37,10.38,35.4,16.23,35.83,20,58.17C359.91,487.41,364,511.35,354,536.55Z"/><path class="cls-1" d="M509,1032.78c-23.59,46-84.34,55.51-94,56.92-27,4-63.35,1.58-67-11.18-.85-3,.08-6.41,10-20.33,13.65-19.15,24.14-29.77,29-35.57,24.06-28.73,20.31-70.71,19-85.39-.95-10.6-3.11-32.07-17-53.87-6.91-10.85-17.7-27.78-34-29.48-16.87-1.76-24.7,14.36-34,10.16-12.86-5.8-16.57-44.5,0-56.92,8.16-6.12,18.42-3.72,47,3.88,65,17.28,64.86,20.44,81,22,48.55,4.71,72.75-24,85-12,12,11.72-12.36,38.23-21,94C502.55,982.41,527.13,997.4,509,1032.78Z"/></g></g></svg>