<svg xmlns="http://www.w3.org/2000/svg" viewBox="0 0 320 320"><defs><style>.cls-1{fill:#9dd3ff;}.cls-2{fill:none;}.cls-3{fill:#cbe2f5;}</style></defs><g id="Layer_2" data-name="Layer 2"><g id="Layer_1-2" data-name="Layer 1"><path class="cls-1" d="M108.5,292.5c24.49.15,44.5,14.36,58,27H147.31a158.85,158.85,0,0,1-67-20.76C87.58,296,96.14,292.42,108.5,292.5Z"/><path class="cls-1" d="M217.5,186.5c2.15,18.41,3.65,31.22-.58,42.05l-4.37,7.88-.05.07c-7.56,10.19-23.21,20.53-37,17-22.41-5.73-15.1-41.74-44-67-23.51-20.55-63.87-27.78-83-11-11.1,9.73-11.91,24.78-13,45-.19,3.54-1.26,23.42,2.22,42.69A160,160,0,0,1,28.89,68.27c3,4.7,7,8.45,11.61,10.23,19.32,7.45,38.28-24,55-17,17.67,7.37,3.57,45.41,25,63,23.34,19.15,59.11-10.31,82,10C212.45,143.33,214.14,157.72,217.5,186.5Z"/><path class="cls-1" d="M272.46,46.19c-18.14,16.56-6,53.45-24,62.31-13.6,6.72-37.38-6.22-38-17-.58-10.14,19.65-12.42,21-23,2.52-19.8-63.06-53.08-131-53-2.64,0-5.84,0-9.44.08a160.11,160.11,0,0,1,181.4,30.61Z"/><path class="cls-1" d="M216.92,228.55a33.74,33.74,0,0,1-4.37,7.88Z"/><path class="cls-2" d="M319.5,172.69V319.5H172.69A160,160,0,0,0,319.5,172.69Z"/><path class="cls-3" d="M319.5,147.31v25.38A160,160,0,0,1,172.69,319.5H166.5c-13.5-12.64-33.51-26.85-58-27-12.36-.08-20.92,3.46-28.24,6.24a160.56,160.56,0,0,1-42.54-35.55C34.24,243.92,35.31,224,35.5,220.5c1.09-20.22,1.9-35.27,13-45,19.13-16.78,59.49-9.55,83,11,28.9,25.26,21.59,61.27,44,67,13.79,3.53,29.44-6.81,37-17l.05-.07a33.74,33.74,0,0,0,4.37-7.88c4.23-10.83,2.73-23.64.58-42.05-3.36-28.78-5.05-43.17-15-52-22.89-20.31-58.66,9.15-82-10-21.43-17.59-7.33-55.63-25-63-16.72-7-35.68,24.45-55,17C35.89,76.72,31.89,73,28.89,68.27A160.49,160.49,0,0,1,91.06,15.58c3.6-.07,6.8-.08,9.44-.08,67.94-.08,133.52,33.2,131,53-1.35,10.58-21.58,12.86-21,23,.62,10.78,24.4,23.72,38,17,17.92-8.86,5.82-45.75,24-62.31A159.44,159.44,0,0,1,319.5,147.31Z"/><path class="cls-1" d="M216.92,228.55a33.74,33.74,0,0,1-4.37,7.88Z"/><path class="cls-2" d="M320,160q0,6.41-.5,12.69A160,160,0,0,1,172.69,319.5q-6.28.5-12.69.5t-12.69-.5a158.85,158.85,0,0,1-67-20.76A160,160,0,1,1,319.5,147.31Q320,153.6,320,160Z"/></g></g></svg>