<svg xmlns="http://www.w3.org/2000/svg" viewBox="0 0 550 1108"><defs><style>.cls-1{fill:#95d7ae;}</style></defs><g id="Layer_2" data-name="Layer 2"><g id="Layer_1-2" data-name="Layer 1"><path class="cls-1" d="M173.74,173.94c2.06,17,9.4,16.34,16.75,43.68,4.32,16.08,7.65,28.48,5.32,44.44,0,0-3.17,21.72-18.27,52.11a134.92,134.92,0,0,1-15.6,20.62,119.54,119.54,0,0,1-17.39,15.63,49.3,49.3,0,0,1,3.45,7,46.93,46.93,0,0,1,3,12,.77.77,0,0,1,0,.15h0s0-.07,0-.11,0-.33-.06-.5c0,0,0,0,0,0H151v0c2.77,49.46-14.08,95.92,2,130.45,12.9,27.75,31.18,11.5,53,49.53,14.6,25.45,11.86,42.21,22,62.88a69.11,69.11,0,0,0,19.63,24.52c20.23,15.65,48,17.33,73.84,4.3C339.71,631.53,357,615,370,590.93c30-55.58,21.88-122.94,53-146.71,12.84-9.81,24.89-5.9,49,1.9,40.65,13.17,46.34,36.84,76,47.64.67.25,1.34.48,2,.69V745.5c-2.2,18.43-19.17,45.26-42,57.55-18.56,10-38,8.77-48,8.14-21.39-1.36-28.52-7.86-68-23.38-60.14-23.65-73.76-20.41-80-18.3-10.41,3.54-9.23,7-37,31.51-35.29,31.16-53.32,46.68-72,43.71-16.65-2.64-20.24-16.74-32-14.23-19,4.07-24.87,44.15-26,51.84-2.92,19.88-6.91,47.12,10,65.06,18.39,19.49,52.59,18.52,75,8.13,29.17-13.52,26-37.24,57-50.83,4.29-1.88,36.92-15.64,59,1,23.08,17.41,17.89,55.45,17,62-5,36.39-33.23,74-70,84.36-43.21,12.17-66-22.41-104-4.06-23.51,11.34-25.29,29.6-47,31.51-21.06,1.85-29.46-14.46-55-18.3-28.84-4.34-51.42,10.32-56,13.22C7.61,1089.26,3.76,1108,0,1108V26.38C.33,18.07.35,9.28,0,0H550V76.64c-17.72,11.56-33.17,15.85-44.16,17.62-38.26,6.12-54.48-13.4-88.92-3.47-3.85,1.11-7.17,4.51-13.44,5.53C389.92,98.54,384.54,90,367,84c0,0-22.06-7.55-60.79-.48a25.52,25.52,0,0,0-6.43,1.86C292.57,88.9,291,95.73,277,98.22c-17.09,3-23.59-5.51-41.55-4S204.63,106,201.14,108.8C181.7,124.39,170.9,150.66,173.74,173.94Z"/><path class="cls-1" d="M347,334c.36-4.48,5.15-6.21,19-15,11.25-7.13,16.84-10.74,23-16,11.41-9.75,10.78-13.72,20-19,7.12-4.08,13.43-5.12,19.79-6.18,6-1,20.44-3,36.54,1.54,9.61,2.68,48.93,13.67,52.54,42.14,3,23.33-19.21,48.63-35.79,48.28-8.52-.19-10.51-7-22.84-8.43s-15.12,4.89-30.45,7.66c-16.3,2.94-29.39-1.17-44.16-5.8-13-4.09-20.29-10.52-25.89-14.89C351.52,342.67,346.62,338.74,347,334Z"/><path class="cls-1" d="M354,536.55c-3.06,7.75-12.73,32.23-36,40.72-1,.36-23.59,8.18-44-5.82-13.44-9.21-20.45-24.11-31-46.53-8.29-17.63-6.92-20.29-13-27.92-13.16-16.51-23.94-9.52-37-23.27-18.27-19.23-16.4-53.19-16-60.5.49-9,1.31-23.91,10-37.22a33.5,33.5,0,0,1,5.84-7A89.87,89.87,0,0,0,208.46,361,81.84,81.84,0,0,0,216,355.5c12.7-10.57,17.21-21.14,21.78-27.64A58.73,58.73,0,0,1,221,302.5c-4.77-14.66-5.76-38.56,6-46.5,13.49-9.1,28.4,13.14,64,13,13.84-.06,27.56-4.7,55-14,27.76-9.41,33.3-14.55,48-14,22.8.85,43.21,14.48,42,21-1.07,5.78-18.29,1.35-39,14-12.65,7.73-9.24,11.22-25,22a235.3,235.3,0,0,1-36,19.5c-11.12,4.88-15,6.22-18,11-4.52,7.31.89,13.24-3,23a24.7,24.7,0,0,1-5.62,8.36A37.29,37.29,0,0,1,323.1,369h.43c.83,1.06,1.65,2.22,2.47,3.49,7,10.87,2.2,11.94,12,45.37,10.38,35.4,16.23,35.83,20,58.17C359.91,487.41,364,511.35,354,536.55Z"/><path class="cls-1" d="M498,1032.78c-23.59,46-84.34,55.51-94,56.92-13.29,2-53.91,7.82-67-11.18-5.46-7.92-4.26-17.46-4-19.52,2.22-17.66,18.7-21.47,33-40,17.87-23.16,18-50.7,18-59,0-12,.48-34.47-15-54-10.23-12.9-22.69-18.63-28-21a78.21,78.21,0,0,0-44-6c-22.23,3.58-37.17,16.32-43,22-9.93,9.67-9.22,13.21-23,26-10.89,10.11-17.1,15.74-27,18-11,2.53-24.68.42-34-7-22.7-18.06-17.39-65.69,3-79,16.44-10.73,30.47,8.83,58-1,9.66-3.45,22.77-15.3,49-39,15.68-14.16,20-19.21,30-22,12.75-3.54,23.65-.44,41,5,22.24,7,27.92,13.48,51.14,21.69,5.91,2.09,20.68,7.31,35.86,9.31,47.34,6.24,74.06-22.67,85-12,12,11.72-12.36,38.23-21,94C491.55,982.41,516.13,997.4,498,1032.78Z"/><path class="cls-1" d="M374,458c-9.62-3.82-13.41-14.11-19-30-6.56-18.63-2.44-19.12-9-37-4.68-12.76-9.15-18.81-6-25a15.52,15.52,0,0,1,14-8c10.23.66,11.59,14,25,23,12,8.06,25.58,7.37,33,7,24.52-1.24,25.75-15.4,45-14,14.27,1,18.68,9.18,40,10,9,.35,8.95-1.09,14,0,16.85,3.62,28.57,21.89,32,38,1.51,7.09,4.63,21.75-4,30-9.67,9.24-27,3.67-29,3-12.23-4.11-11.56-11-26-19-12.13-6.73-23.64-8-33-9-14.69-1.6-22-2.49-29,1-13.74,6.88-11.06,20.62-26,28C393.49,457.24,383.47,461.77,374,458Z"/></g></g></svg>