<svg xmlns="http://www.w3.org/2000/svg" viewBox="0 0 550.35 1950.93"><defs><style>.cls-1{fill:#b0e7c5;}</style></defs><g id="Layer_2" data-name="Layer 2"><g id="Layer_1-2" data-name="Layer 1"><path class="cls-1" d="M174.09,173.94c2.06,17,9.4,16.34,16.75,43.68,4.32,16.08,7.65,28.48,5.32,44.44,0,0-3.17,21.72-18.27,52.11a134.92,134.92,0,0,1-15.6,20.62,119.54,119.54,0,0,1-17.39,15.63,49.3,49.3,0,0,1,3.45,7,46.93,46.93,0,0,1,3,12,.77.77,0,0,1,0,.15h0s0-.07,0-.11,0-.33-.06-.5c0,0,0,0,0,0h.07v0c2.77,49.46-14.08,95.92,2,130.45,12.9,27.75,31.18,11.5,53,49.53,14.6,25.45,11.86,42.21,22,62.88A69.11,69.11,0,0,0,248,636.41c20.23,15.65,48,17.33,73.84,4.3,18.24-9.18,35.52-25.69,48.53-49.78,30-55.58,21.88-122.94,53-146.71,12.84-9.81,24.89-5.9,49,1.9,40.65,13.17,46.34,36.84,76,47.64.67.25,1.34.48,2,.69V745.5c-2.2,18.43-19.17,45.26-42,57.55-18.56,10-38,8.77-48,8.14-21.39-1.36-28.52-7.86-68-23.38-60.14-23.65-73.76-20.41-80-18.3-10.41,3.54-9.23,7-37,31.51-35.29,31.16-53.32,46.68-72,43.71-16.65-2.64-20.24-16.74-32-14.23-19,4.07-24.87,44.15-26,51.84-2.92,19.88-6.91,47.12,10,65.06,18.39,19.49,52.59,18.52,75,8.13,29.17-13.52,26-37.24,57-50.83,4.29-1.88,36.92-15.64,59,1,24.18,18.25,17.34,60.08,17,62-8.38,47-53.63,57.65-51.35,90.83,1.39,20.17,19.51,36.57,33,44,55.23,30.43,130.46-35.62,149-15,10.44,11.61-.75,46.63-23,69-62.11,62.44-201.87,17.65-232,8-115.59-37-181.58-106.16-222.24-78.19C7.67,1092.62,2.91,1101.61.35,1108V26.38C.68,18.07.7,9.28.35,0h550V76.64c-17.72,11.56-33.17,15.85-44.16,17.62-38.26,6.12-54.48-13.4-88.92-3.47-3.85,1.11-7.17,4.51-13.45,5.53C390.27,98.54,384.89,90,367.35,84c0,0-22.06-7.55-60.79-.48a25.37,25.37,0,0,0-6.43,1.86c-7.22,3.52-8.77,10.35-22.82,12.84-17.09,3-23.59-5.51-41.55-4S205,106,201.49,108.8C182.05,124.39,171.25,150.66,174.09,173.94Z"/><path class="cls-1" d="M347.35,334c.36-4.48,5.15-6.21,19-15,11.24-7.13,16.84-10.74,23-16,11.41-9.75,10.77-13.72,20-19,7.11-4.08,13.43-5.12,19.79-6.18,6-1,20.44-3,36.54,1.54,9.61,2.68,48.93,13.67,52.54,42.14,2.95,23.33-19.21,48.63-35.79,48.28-8.53-.19-10.52-7-22.84-8.43s-15.12,4.89-30.45,7.66c-16.3,2.94-29.4-1.17-44.16-5.8-13-4.09-20.29-10.52-25.89-14.89C351.87,342.67,347,338.74,347.35,334Z"/><path class="cls-1" d="M354.35,536.55c-3.06,7.75-12.73,32.23-36,40.72-1,.36-23.59,8.18-44-5.82-13.44-9.21-20.45-24.11-31-46.53-8.29-17.63-6.92-20.29-13-27.92-13.16-16.51-23.94-9.52-37-23.27-18.27-19.23-16.4-53.19-16-60.5.49-9,1.31-23.91,10-37.22a33.5,33.5,0,0,1,5.84-7A90.22,90.22,0,0,0,208.81,361a81.84,81.84,0,0,0,7.54-5.45c12.7-10.57,17.21-21.14,21.78-27.64a58.56,58.56,0,0,1-16.78-25.36c-4.77-14.66-5.77-38.56,6-46.5,13.48-9.1,28.39,13.14,64,13,13.84-.06,27.56-4.7,55-14,27.76-9.41,33.3-14.55,48-14,22.79.85,43.2,14.48,42,21-1.07,5.78-18.29,1.35-39,14-12.65,7.73-9.24,11.22-25,22a235.79,235.79,0,0,1-36,19.5c-11.13,4.88-15.05,6.22-18,11-4.52,7.31.89,13.24-3,23a24.7,24.7,0,0,1-5.62,8.36A37.29,37.29,0,0,1,323.45,369h.43c.83,1.06,1.65,2.22,2.47,3.49,7,10.87,2.2,11.94,12,45.37,10.38,35.4,16.23,35.83,20,58.17C360.26,487.41,364.3,511.35,354.35,536.55Z"/><path class="cls-1" d="M498.35,1032.78c-23.6,46-84.34,55.51-94,56.92-13.29,2-53.91,7.82-67-11.18-5.46-7.92-4.26-17.46-4-19.52,2.22-17.66,18.7-21.47,33-40,17.86-23.16,18-50.7,18-59,0-12,.48-34.47-15-54-10.23-12.9-22.7-18.63-28-21a78.23,78.23,0,0,0-44-6c-22.24,3.58-37.18,16.32-43,22-9.93,9.67-9.23,13.21-23,26-10.89,10.11-17.1,15.74-27,18-11,2.53-24.68.42-34-7-22.7-18.06-17.39-65.69,3-79,16.44-10.73,30.47,8.83,58-1,9.65-3.45,22.77-15.3,49-39,15.67-14.16,20-19.21,30-22,12.75-3.54,23.65-.44,41,5,22.24,7,27.92,13.48,51.14,21.69,5.91,2.09,20.68,7.31,35.86,9.31,47.33,6.24,74.06-22.67,85-12,12,11.72-12.36,38.23-21,94C491.9,982.41,516.47,997.4,498.35,1032.78Z"/><path class="cls-1" d="M374.35,458c-9.62-3.82-13.41-14.11-19-30-6.56-18.63-2.45-19.12-9-37-4.68-12.76-9.15-18.81-6-25a15.52,15.52,0,0,1,14-8c10.22.66,11.59,14,25,23,12,8.06,25.58,7.37,33,7,24.52-1.24,25.74-15.4,45-14,14.27,1,18.68,9.18,40,10,9,.35,8.94-1.09,14,0,16.85,3.62,28.57,21.89,32,38,1.51,7.09,4.63,21.75-4,30-9.67,9.24-27,3.67-29,3-12.23-4.11-11.56-11-26-19-12.13-6.73-23.64-8-33-9-14.69-1.6-22-2.49-29,1-13.74,6.88-11.07,20.62-26,28C393.84,457.24,383.82,461.77,374.35,458Z"/><path class="cls-1" d="M361.46,1950.56a62.56,62.56,0,0,1-13.68,0Z"/><path class="cls-1" d="M221,1607.56c-27.7.19-46.43,21-49,24-24,27.53-16,62.72-15,67,8.39,34.47,37.91,49.8,46,54,21.17,11,41.27,9.46,66,8,22.13-1.31,33.59-2,46-9,34.13-19.32,49.41-71.94,34-89-9.11-10.08-22.21-.32-48-13-14.95-7.36-13.52-12.15-33-24C251.25,1615.37,238.22,1607.44,221,1607.56Z"/><path class="cls-1" d="M433,1608.56c-17.62,21.35-25.73,31.66-42,38-10.51,4.09-16,3-22,9-10.52,10.64-2.61,23.47-7,46-4.61,23.67-21.21,49.85-44,59-14.08,5.65-26.39,3.14-27,7s10.65,7.46,34,18c26.93,12.15,40.63,18.42,52,28,3.72,3.13,16.48,13.36,26,29,23.41,38.44,9.55,79.2,17,81,7.28,1.75,27.34-35.52,38-82,11.65-50.77.92-63.89,15-108,9.18-28.78,12.69-19.88,32-66,19.49-46.54,24.31-75.65,31-116,5.69-34.33,4-41.93,0-44-7.8-4-24.09,12.87-47,37C465.18,1569.64,437.41,1603.21,433,1608.56Z"/><path class="cls-1" d="M514,1230.56c18.5,71.77-46.11,174.46-117,189-12.9,2.64-16.73.47-60,6-51.81,6.62-56.33,11-73,8-28.94-5.26-47.81-24.44-71-48-11.93-12.13-25.45-31.25-52-69-38.22-54.35-36.06-54.5-45-62-26.68-22.39-45.91-21-72-48a148.26,148.26,0,0,1-24-33V1140c2.93-15.8,10.07-29.53,21-36.39,23.65-14.83,50.71,11.46,148,55,139.3,62.34,190.34,56.12,206,53,49.44-9.84,69-17,69-17,5.66-4.42,20.41-14.68,36-11C503.3,1189.05,511.72,1221.72,514,1230.56Z"/><path class="cls-1" d="M100,1561.56c-8.16,36.88-19.77,58.59-43,102-13.87,25.92-23.55,39.37-35,39-9.57-.3-17-10.15-22-18.7V1555.39c12.33-20.81,26-27.69,25-50.83-1.07-23.81-16.48-36.45-25-52.61v-44.52c3.43-7.33,9-15.17,18-18.87,14.72-6.09,30.36,2.3,41,8,22.24,11.92,34,30.17,38,37C119.72,1472.43,109.88,1516.91,100,1561.56Z"/><path class="cls-1" d="M550,1313v120.63a174.3,174.3,0,0,1-16,37.93c-29.88,52.14-66.29,48.73-101,113-6.91,12.79-18.73,36.49-43,46-12.42,4.87-25.36,4.92-42,5-1.64,0-20.45,0-36-3-45.85-8.94-53-45.27-85-47-31.79-1.71-64.18,20.58-79,49-21.46,41.16-4.32,91.83,23,118,28.72,27.5,52.26,12.21,130,41,46.07,17.06,79.22,29.88,94,62,12.34,26.82,12.78,69.1-12,87a44.89,44.89,0,0,1-21.54,8H347.78c-19.44-2-39.62-12.14-52.78-25-28.55-27.92-13.57-58.65-39-77-26.49-19.11-53.79,6.26-99-2-41.33-7.55-85.31-41-100-80-26.32-70,59.47-110,68-249,1.44-23.54,6.59-107.4-38-135-19.74-12.22-33.67-3.79-53-18-41.87-30.79-42.23-118.74-16-132,19.75-10,55.17,22.1,65,31,19.6,17.75,22.26,28.84,50,71,26.42,40.15,39.62,60.22,59,77,18.3,15.85,43.31,38.49,79,42,21.24,2.09,21.59-4.94,70-10,44.56-4.66,47.44,1,66-6,5.17-1.94,29.33-9.35,59-39,54.28-54.25,56.86-111.38,69-110C539.68,1289.09,545.39,1298.29,550,1313Z"/></g></g></svg>