<svg xmlns="http://www.w3.org/2000/svg" viewBox="0 0 546.44 90.88"><defs><style>.cls-1{fill:#95d7ae;}</style></defs><g id="Layer_2" data-name="Layer 2"><g id="Layer_1-2" data-name="Layer 1"><path class="cls-1" d="M546.44,38v52.9H0V16.76C21.73-6.52,62.76-.85,83,6c6.16,2.09,9.57,4,27.63,10.58,23.38,8.48,30.62,9.94,38.45,8.77,11.26-1.67,14.54-7.41,23.35-11.77,27.72-13.72,49.42,16.32,102.32,19.7,26.82,1.72,23.65-5.85,59.46-4.58,30.26,1.08,41.88,6.81,63.31,0,18.44-5.83,18.71-12.88,32.95-13.68,19.13-1.08,24.92,9,48.91,16C515.61,41.47,534.18,25.72,546.44,38Z"/></g></g></svg>