<svg xmlns="http://www.w3.org/2000/svg" viewBox="0 0 32 32"><defs><style>.cls-1{fill:none;stroke:#231f20;stroke-linecap:round;stroke-miterlimit:10;stroke-width:2px;}</style></defs><g id="Layer_2" data-name="Layer 2"><g id="Layer_1-2" data-name="Layer 1"><path class="cls-1" d="M15.44,11.11A6.41,6.41,0,0,0,9,12.44c-2.67,2.37-3.37,7-1.3,9.28,1.54,1.67,4.09,1.43,5.18,1.33.81-.08,5.25-.5,6.46-4A6.67,6.67,0,0,0,15.44,11.11Z"/><path class="cls-1" d="M23.2,11.11a10.53,10.53,0,0,0-2.59,4c-1.14,3.22-1.09,8.07,1.3,9.28,2,1,4.71-1,5.17-1.32A10.63,10.63,0,0,0,31,13.76c-.6-6.47-7.37-9.78-9-10.6-1.23-.6-9.3-4.54-15.52,0-4.08,3-4.92,7.85-5.17,9.28A16.48,16.48,0,0,0,3.81,24.37C8.36,30.91,16,31,16.73,31"/></g></g></svg>