<svg xmlns="http://www.w3.org/2000/svg" viewBox="0 0 27 25"><defs><style>.cls-1{fill:none;stroke:#231f20;stroke-linecap:round;stroke-miterlimit:10;}</style></defs><g id="Layer_2" data-name="Layer 2"><g id="Layer_1-2" data-name="Layer 1"><path class="cls-1" d="M1.43,2.3C3.26,0,5.3,1.58,17.42.68c2.95-.22,4.44-.44,5.76.69,1.63,1.4,1.36,3.44,2.13,10,.9,7.65,1.8,9.26.64,10.67-1.34,1.62-3.44.56-8.31.46C8.06,22.3,4.71,26.17,2.07,23.64.81,22.43.74,19.2.58,12.74.44,6.69.37,3.66,1.43,2.3Z"/><path class="cls-1" d="M1.19,2.39c2.57,3.3,4.86,5.92,6.6,7.83,3.68,4,4.87,4.81,6.16,4.65.78-.1,1.79-.56,4.55-4.87a68.65,68.65,0,0,0,4.68-8.63"/></g></g></svg>