<svg xmlns="http://www.w3.org/2000/svg" viewBox="0 0 32 32"><defs><style>.cls-1{fill:none;stroke:#231f20;stroke-miterlimit:10;stroke-width:2px;}</style></defs><g id="Layer_2" data-name="Layer 2"><g id="Layer_1-2" data-name="Layer 1"><path class="cls-1" d="M13.87,30.3c.56-.54,0-1.13,0-4.3-.06-3.93.73-5.32-.24-6.12-1.16-1-3.11.34-4-.68a2.28,2.28,0,0,1,.24-2.72c1-1.19,2.68-.2,3.76-1.14,1.67-1.46-1-5,.71-7,.74-.9,2.14-1.05,4.93-1.36,2.36-.27,3.74-.42,4.47.45A2.7,2.7,0,0,1,23.27,11c-1.22.74-2.71-.93-4-.23s-1.66,3.69-.47,4.76c1,.93,2.66-.07,3.53.91a2.28,2.28,0,0,1-.23,2.94c-1,.83-2.23-.25-3.3.46-.43.28-.95.94-.7,5.89.14,2.7.19,4.07.7,4.53,1.63,1.49,5.91.46,8.47-1.81s3.09-5.82,3.53-9.75a21.53,21.53,0,0,0-.24-7.25c-.62-2.88-1.39-6.44-4.47-8.61-2.22-1.57-4.59-1.67-8.23-1.82C15.06,1,12.49.84,9.63,2.2A13.74,13.74,0,0,0,4.23,7a16.78,16.78,0,0,0-3.06,8.61c-.24,2.57-.6,6.5,1.88,10C6.12,29.83,12.36,31.77,13.87,30.3Z"/></g></g></svg>