<svg xmlns="http://www.w3.org/2000/svg" viewBox="0 0 27 25"><defs><style>.cls-1{fill:none;stroke:#231f20;stroke-miterlimit:10;}</style></defs><g id="Layer_2" data-name="Layer 2"><g id="Layer_1-2" data-name="Layer 1"><path class="cls-1" d="M16.38,18c.26-.06.74-.14,1.2-.27a5.92,5.92,0,0,0,3.31-8.68,3.84,3.84,0,0,1-.33-1.42c-.13-.82-.23-1.65-.35-2.48A9.15,9.15,0,0,0,18,5.78a3.72,3.72,0,0,1-2.36.39c-1.37-.13-2.76,0-4.14,0a5.81,5.81,0,0,1-1.53-.28,6.27,6.27,0,0,1-.86-.43C7.35,4.74,6.8,5,6.92,7A5.54,5.54,0,0,1,6.3,9.78a5.74,5.74,0,0,0,4.15,8.12l.89.2a4,4,0,0,0-.31.63c-.22.7-.46,1.31-1.38,1.34a2.6,2.6,0,0,1-2.37-1,6.91,6.91,0,0,0-1.34-1.36,3.29,3.29,0,0,0-1.17-.26l-.14.24c.18.19.36.37.53.57a6.29,6.29,0,0,1,1.13,1.43A3.21,3.21,0,0,0,10,21.83c.18,0,.37,0,.69,0v1.56c0,1.11-.28,1.31-1.28.92a12.15,12.15,0,0,1-4-2.51,19.58,19.58,0,0,1-2.58-2.5,11,11,0,0,1-2-4.16c-.66-2.87.25-5.26,1-7.29S3.22,4,4.83,2.65C7.05.76,9.68.68,13,.57c4-.13,6.08-.2,8.2,1C25.38,4,27,9.7,26.35,14.09a13.25,13.25,0,0,1-2.47,5.75,12.22,12.22,0,0,1-5.67,4.42c-1.12.48-1.38.28-1.38-1,0-.76.06-1.52,0-2.26C16.73,20.06,16.54,19.09,16.38,18Z"/></g></g></svg>