<svg xmlns="http://www.w3.org/2000/svg" viewBox="0 0 32 32"><defs><style>.cls-1{fill:none;stroke:#231f20;stroke-miterlimit:10;stroke-width:2px;}</style></defs><g id="Layer_2" data-name="Layer 2"><g id="Layer_1-2" data-name="Layer 1"><path class="cls-1" d="M19.66,22.67c.3-.07.84-.17,1.37-.33,4.11-1.21,6-6.75,3.77-10.74a5.4,5.4,0,0,1-.37-1.75c-.15-1-.26-2-.39-3.06a9.13,9.13,0,0,0-2.58.72A3.92,3.92,0,0,1,18.75,8c-1.55-.16-3.14.06-4.72,0a6.31,6.31,0,0,1-1.75-.34,9.54,9.54,0,0,1-1-.53C9.34,6.22,8.72,6.6,8.85,9a7.22,7.22,0,0,1-.71,3.5c-1.85,4.27.51,9.16,4.74,10,.33.07.64.16,1,.25a5,5,0,0,0-.35.77,2.49,2.49,0,0,1-.8,1.44,1.5,1.5,0,0,1-.78.22c-1,.06-1.8-.64-2.7-1.29S6.5,21.9,6,22.28s.08,1.91,1,3A5.89,5.89,0,0,0,9.79,26.9a5.14,5.14,0,0,0,2.54.45c.22,0,.43,0,.8,0,0,.66,0,1.3,0,1.93a1.74,1.74,0,0,1-.34,1.29c-.27.29-.82.46-3.8-.37a16.18,16.18,0,0,1-3-1,8.39,8.39,0,0,1-3-3c-2.35-3.67-2.08-8.6-2-9.89.25-3.22.72-9.18,5.4-12.71,3.07-2.31,6.46-2.45,9.37-2.57,3.28-.14,7.6-.32,11,2.42,5.06,4.11,4.28,11.76,4,14.84-.12,1.16-1,9.54-5.94,11.87-1,.46-3.49,1.31-4.3.39a2.1,2.1,0,0,1-.35-1.42c0-.93.07-1.87,0-2.79C20.06,25.16,19.84,24,19.66,22.67Z"/></g></g></svg>