<svg xmlns="http://www.w3.org/2000/svg" viewBox="0 0 27 25"><defs><style>.cls-1{fill:none;stroke:#231f20;stroke-miterlimit:10;}</style></defs><g id="Layer_2" data-name="Layer 2"><g id="Layer_1-2" data-name="Layer 1"><path class="cls-1" d="M23,24.34a31,31,0,0,1-6.24,0c-4.57-.47-7.94.46-12.66,0a4,4,0,0,1-2.39-.92,3.4,3.4,0,0,1-1-2.2C.06,16,1.54,11.73.67,7.56a10.28,10.28,0,0,1,0-3.78,3.63,3.63,0,0,1,1-2.21A4,4,0,0,1,4.05.66c5.76-.57,12,.64,15.87,0a9,9,0,0,1,3,0,4.23,4.23,0,0,1,2.39.91,3.48,3.48,0,0,1,1,2.21c.61,5.24-.87,9.48,0,13.65a10.62,10.62,0,0,1,0,3.79,3.61,3.61,0,0,1-1,2.2A4.1,4.1,0,0,1,23,24.34Z"/><ellipse class="cls-1" cx="4.95" cy="4.6" rx="1.07" ry="0.99"/><path class="cls-1" d="M14.07,7.56c-3.71-.33-6.95,2-7.48,4.94C6,16,9.3,19.14,13,19.4s7.53-2.4,7.49-5.92C20.45,10.54,17.73,7.84,14.07,7.56Z"/></g></g></svg>