<svg xmlns="http://www.w3.org/2000/svg" viewBox="0 0 32 32"><defs><style>.cls-1,.cls-2{fill:none;stroke:#231f20;stroke-miterlimit:10;}.cls-1{stroke-width:2px;}.cls-2{stroke-width:2.41px;}</style></defs><g id="Layer_2" data-name="Layer 2"><g id="Layer_1-2" data-name="Layer 1"><path class="cls-1" d="M26.9,30.8a33.33,33.33,0,0,1-7.2,0c-5.27-.59-9.16.57-14.6,0a4.41,4.41,0,0,1-2.76-1.15A4.48,4.48,0,0,1,1.19,26.9c-.7-6.56,1-11.86,0-17.07a14.65,14.65,0,0,1,0-4.73A4.7,4.7,0,0,1,2.34,2.34,4.42,4.42,0,0,1,5.1,1.19C11.74.48,19,2,23.4,1.19a10.68,10.68,0,0,1,3.5,0,4.71,4.71,0,0,1,2.76,1.15A4.48,4.48,0,0,1,30.8,5.1c.71,6.55-1,11.85,0,17.06a14.07,14.07,0,0,1,0,4.74,4.6,4.6,0,0,1-1.14,2.75A4.5,4.5,0,0,1,26.9,30.8Z"/><path class="cls-2" d="M25.49,4.89A1.49,1.49,0,1,0,27,6.38,1.5,1.5,0,0,0,25.49,4.89Z"/><path class="cls-1" d="M16.66,9.83A7.88,7.88,0,0,0,8,16c-.72,4.34,3.14,8.3,7.41,8.63s8.68-3,8.63-7.4A7.87,7.87,0,0,0,16.66,9.83Z"/></g></g></svg>