<svg xmlns="http://www.w3.org/2000/svg" viewBox="0 0 32 32"><defs><style>.cls-1{fill:none;stroke:#231f20;stroke-miterlimit:10;stroke-width:2px;}</style></defs><g id="Layer_2" data-name="Layer 2"><g id="Layer_1-2" data-name="Layer 1"><path class="cls-1" d="M26.9,30.8a33.33,33.33,0,0,1-7.2,0c-5.27-.59-9.16.57-14.6,0a4.41,4.41,0,0,1-2.76-1.15A4.48,4.48,0,0,1,1.19,26.9c-.7-6.56,1-11.86,0-17.07a14.65,14.65,0,0,1,0-4.73A4.7,4.7,0,0,1,2.34,2.34,4.42,4.42,0,0,1,5.1,1.19C11.74.48,19,2,23.4,1.19a10.68,10.68,0,0,1,3.5,0,4.71,4.71,0,0,1,2.76,1.15A4.48,4.48,0,0,1,30.8,5.1c.71,6.55-1,11.85,0,17.06a14.07,14.07,0,0,1,0,4.74,4.6,4.6,0,0,1-1.14,2.75A4.5,4.5,0,0,1,26.9,30.8Z"/><path class="cls-1" d="M6.21,15.12c-.68.79-.86,1.57-1.24,4.93C4.53,24,4.6,24.46,5,25c.82,1.15,2.64,1.82,3.71,1.24.61-.34.55-.86,1.23-6.17a10.61,10.61,0,0,0,0-3.7c-.19-1-.43-2.19-1.23-2.47C7.61,13.52,6.3,15,6.21,15.12Z"/><circle class="cls-1" cx="8.6" cy="8.95" r="2.47"/><path class="cls-1" d="M13.61,21.28c-.15,2.88-.82,4.07,0,4.94a3,3,0,0,0,3.7,0c1.37-1.28-.14-3.66,1.24-4.94a2.91,2.91,0,0,1,3.7,0c1.06,1.27-1.05,3.71,0,4.94a2.86,2.86,0,0,0,3.7,0c.84-.85-.29-1.85,0-4.94.16-1.67.6-2.59,0-3.7a3.22,3.22,0,0,0-1.24-1.23c-2.23-1.24-4.73,1.14-6.16,0-.84-.66-.27-1.68-1.24-2.47a3.12,3.12,0,0,0-3.7,0C12.41,15,13.85,16.78,13.61,21.28Z"/></g></g></svg>