<svg xmlns="http://www.w3.org/2000/svg" viewBox="0 0 27 25"><defs><style>.cls-1{fill:none;stroke:#231f20;stroke-miterlimit:10;}</style></defs><g id="Layer_2" data-name="Layer 2"><g id="Layer_1-2" data-name="Layer 1"><path class="cls-1" d="M23,24.34a31,31,0,0,1-6.24,0c-4.57-.47-7.94.46-12.66,0a4,4,0,0,1-2.39-.92,3.4,3.4,0,0,1-1-2.2C.06,16,1.54,11.73.67,7.56a10.28,10.28,0,0,1,0-3.78,3.63,3.63,0,0,1,1-2.21A4,4,0,0,1,4.05.66c5.76-.57,12,.64,15.87,0a9,9,0,0,1,3,0,4.23,4.23,0,0,1,2.39.91,3.48,3.48,0,0,1,1,2.21c.61,5.24-.87,9.48,0,13.65a10.62,10.62,0,0,1,0,3.79,3.61,3.61,0,0,1-1,2.2A4.1,4.1,0,0,1,23,24.34Z"/><path class="cls-1" d="M5,11.79c-.59.64-.74,1.26-1.07,4-.38,3.13-.32,3.53,0,4a3,3,0,0,0,3.21,1c.53-.27.48-.68,1.07-4.93a7.91,7.91,0,0,0,0-3c-.16-.78-.37-1.75-1.07-2C6.23,10.51,5.09,11.71,5,11.79Z"/><ellipse class="cls-1" cx="7.09" cy="6.86" rx="2.14" ry="1.97"/><path class="cls-1" d="M11.43,16.73c-.13,2.3-.72,3.25,0,3.94a2.71,2.71,0,0,0,3.21,0c1.19-1-.12-2.92,1.07-3.94a2.67,2.67,0,0,1,3.2,0c.93,1-.9,3,0,3.94a2.64,2.64,0,0,0,3.21,0c.74-.68-.25-1.47,0-3.94.14-1.34.52-2.08,0-3a2.74,2.74,0,0,0-1.07-1c-1.94-1-4.1.91-5.34,0-.73-.53-.23-1.34-1.07-2a2.87,2.87,0,0,0-3.21,0C10.39,11.71,11.64,13.12,11.43,16.73Z"/></g></g></svg>