<svg xmlns="http://www.w3.org/2000/svg" viewBox="0 0 27 25"><defs><style>.cls-1{fill:none;stroke:#231f20;stroke-miterlimit:10;}</style></defs><g id="Layer_2" data-name="Layer 2"><g id="Layer_1-2" data-name="Layer 1"><path class="cls-1" d="M3.13,24.44c-.12-.12-.11-.37.62-2.83.59-1.94.73-2.29.63-2.83-.21-1.1-1.19-1.51-1.88-2.12C.37,14.78-.07,9.94,1.24,6.77,2.81,3,6.4,1.83,8.78,1.11A15.69,15.69,0,0,1,22,3.23C23.63,4.42,25.8,6,26.37,8.89c.65,3.34-1.3,6.2-1.89,7.07a11.19,11.19,0,0,1-8.79,4.94c-2.07,0-3.25-.74-5.65,0A17.44,17.44,0,0,0,6.9,22.32C4.58,23.61,3.48,24.79,3.13,24.44Z"/><path class="cls-1" d="M5.64,13.83C5.38,13.57,8,8,10.66,8.18c2.11.15,2.83,3.74,5,3.53.61-.05,1.24-.51,2.51-1.41C20,9,20.61,8.08,20.71,8.18c.26.24-2.85,6.78-5.65,6.36-1.88-.28-2.27-3.51-4.4-3.53a6.38,6.38,0,0,0-3.14,1.41C6.19,13.29,5.74,13.93,5.64,13.83Z"/></g></g></svg>