<svg xmlns="http://www.w3.org/2000/svg" viewBox="0 0 32 32"><defs><style>.cls-1{fill:none;stroke:#231f20;stroke-miterlimit:10;stroke-width:2px;}</style></defs><g id="Layer_2" data-name="Layer 2"><g id="Layer_1-2" data-name="Layer 1"><path class="cls-1" d="M4,30.92c-.14-.15-.13-.46.72-3.53.68-2.43.85-2.87.73-3.54C5.24,22.47,4.1,22,3.31,21.2.85,18.85.34,12.8,1.86,8.83c1.8-4.72,5.95-6.16,8.69-7.07A16.92,16.92,0,0,1,25.77,4.41c1.92,1.49,4.42,3.42,5.08,7.07.75,4.18-1.5,7.76-2.18,8.84C26.35,24,22.32,26.47,18.53,26.5c-2.4,0-3.76-.92-6.53,0a20.45,20.45,0,0,0-3.62,1.77C5.71,29.88,4.43,31.36,4,30.92Z"/><path class="cls-1" d="M6.93,17.67c-.34-.24,2.58-7.1,5.8-7.07,2.16,0,2.54,3.12,5.36,3.29,2.21.13,4.47-1.64,4.91-2,.95-.77,1.24-1.35,1.32-1.29.31.2-3.29,8.26-6.52,8-2-.19-2.1-3.32-4.71-3.66-2.2-.29-4.74,1.6-5,1.79C7.28,17.3,7,17.73,6.93,17.67Z"/></g></g></svg>