<svg xmlns="http://www.w3.org/2000/svg" viewBox="0 0 547.5 127.97"><defs><style>.cls-1{fill:#95d7ae;}</style></defs><g id="Layer_2" data-name="Layer 2"><g id="Layer_1-2" data-name="Layer 1"><path class="cls-1" d="M547.5,0V75.79c-11.09,8.41-26,16.55-44,17.43-21.79,1.06-27.71-9.52-53.81-9.85-21.06-.27-24,6.53-49.26,8.34-21.16,1.51-25.42-2.8-49.27-4.55-32.77-2.42-35.75,4.91-98.52,9.09-24,1.6-36,2-48.5-.6-23.41-4.79-24.7-13.19-42.45-13-7.35.06-19.31,1.28-36.38,12.12-18,11.45-15.18,16.56-28,24.26-22.75,13.62-48.93,8-54.57,6.82A85.43,85.43,0,0,1,0,102.17V0Z"/></g></g></svg>